<svg width="95" height="77" viewBox="0 0 95 77" fill="none" xmlns="http://www.w3.org/2000/svg">
<path d="M0.00185427 36.7611C0.00185427 35.5439 0.391376 34.5214 1.21911 33.6936C2.04684 32.9146 3.02065 32.5251 4.14052 32.5251H30.5306C34.1337 32.5251 37.2012 33.791 39.7331 36.3716C42.265 38.9522 43.5309 42.0197 43.5309 45.6227C43.5309 49.2258 42.265 52.342 39.7331 54.8739C37.2012 57.4058 34.1337 58.6717 30.5306 58.6717C26.9276 58.6717 23.8114 57.4058 21.2795 54.8252C20.9025 54.4411 20.6085 53.9835 20.4158 53.4809C20.2232 52.9783 20.136 52.4415 20.1596 51.9038C20.1596 50.7352 20.5491 49.7127 21.2795 48.9824C22.0098 48.2033 22.9836 47.8138 24.2009 47.8138C25.3208 47.8138 26.2946 48.2033 27.171 48.9824C28.1448 49.9075 29.2647 50.3944 30.5306 50.3944C31.7966 50.3944 32.9164 49.9075 33.8416 48.9824C34.2982 48.5415 34.6592 48.0114 34.9021 47.4251C35.145 46.8387 35.2646 46.2086 35.2536 45.5741C35.2536 44.3081 34.7667 43.1882 33.8416 42.2631C32.9164 41.338 31.7966 40.8511 30.5306 40.8511H4.14052C3.02065 40.8511 2.04684 40.4616 1.21911 39.6339C0.391376 38.8061 0.00185427 37.9297 0.00185427 36.7611ZM0.00185427 21.9593C0.00185427 20.7907 0.391376 19.7682 1.21911 18.9405C2.04684 18.1615 3.02065 17.7719 4.14052 17.7719H55.5087C56.7747 17.7719 57.8945 17.285 58.8196 16.3599C59.7448 15.4348 60.2317 14.2662 60.2317 13.0003C60.2317 11.7343 59.7448 10.5658 58.8196 9.64066C58.392 9.19352 57.8781 8.83783 57.309 8.59512C56.7399 8.35241 56.1274 8.22774 55.5087 8.22865C54.1454 8.22865 53.0742 8.66686 52.1978 9.59198C51.3214 10.3223 50.2989 10.7119 49.0816 10.7119C47.913 10.7119 46.9392 10.3223 46.1602 9.59198C45.7851 9.2065 45.4923 8.7487 45.2998 8.24645C45.1073 7.7442 45.019 7.20802 45.0403 6.67056C45.0403 5.4533 45.3811 4.4795 46.1602 3.70046C48.6434 1.21726 51.7596 0 55.5087 0C59.1118 0 62.228 1.26594 64.7599 3.79784C67.2917 6.32973 68.5577 9.39722 68.5577 12.9516C68.5577 16.506 67.2917 19.6222 64.7599 22.1541C62.228 24.6859 59.1605 25.9519 55.5087 25.9519H4.14052C2.97196 25.9519 1.99815 25.5624 1.21911 24.7833C0.821219 24.4309 0.505865 23.9952 0.295478 23.5071C0.0850909 23.019 -0.0151603 22.4905 0.00185427 21.9593Z" fill="#FFC46C"/>
<path d="M80.7083 54.5417V42.2917H84.7917V54.5417H80.7083ZM80.7083 62.7083V58.625H84.7917V62.7083H80.7083ZM72.5417 54.5417V38.2083C72.5417 34.7375 69.8875 32.0833 66.4167 32.0833C62.9458 32.0833 60.2917 34.7375 60.2917 38.2083V54.5417C55.8 58.0125 54.7792 64.3417 58.25 68.8333C61.7208 73.325 68.05 74.3458 72.5417 70.875C77.0333 67.4042 78.0542 61.075 74.5833 56.5833C73.9708 55.7667 73.3583 55.1542 72.5417 54.5417ZM66.4167 36.1667C67.6417 36.1667 68.4583 36.9833 68.4583 38.2083V44.3333H64.375V38.2083C64.375 36.9833 65.1917 36.1667 66.4167 36.1667Z" fill="#FFC46C"/>
</svg>
