<svg width="21" height="22" viewBox="0 0 21 22" fill="none" xmlns="http://www.w3.org/2000/svg">
<path d="M16.0027 7.00106C16.0027 5.40948 15.3704 3.88309 14.245 2.75767C13.1196 1.63225 11.5932 1 10.0016 1C8.41001 1 6.88362 1.63225 5.7582 2.75767C4.63278 3.88309 4.00053 5.40948 4.00053 7.00106C4.00053 14.0023 1 16.0027 1 16.0027H19.0032C19.0032 16.0027 16.0027 14.0023 16.0027 7.00106Z" stroke="#D3D3D3" stroke-width="2" stroke-linecap="round" stroke-linejoin="round"/>
<path d="M11.732 20.0033C11.5562 20.3064 11.3038 20.558 11.0001 20.733C10.6965 20.9079 10.3522 20.9999 10.0017 20.9999C9.65129 20.9999 9.307 20.9079 9.00333 20.733C8.69966 20.558 8.44726 20.3064 8.27142 20.0033" stroke="#D3D3D3" stroke-width="2" stroke-linecap="round" stroke-linejoin="round"/>
</svg>
