<svg width="12" height="12" viewBox="0 0 12 12" fill="none" xmlns="http://www.w3.org/2000/svg">
<circle cx="5.84133" cy="5.84133" r="5.84133" fill="#DFBD2C"/>
<g clip-path="url(#clip0_1_380)">
<path d="M3.01416 5.48423L5.3824 6.90421C5.52098 6.98757 5.67965 7.03161 5.84136 7.03161C6.00308 7.03161 6.16175 6.98757 6.30033 6.90421L8.66857 5.48423C8.73886 5.44208 8.79703 5.38244 8.83742 5.31112C8.87781 5.2398 8.89904 5.15924 8.89904 5.07728C8.89904 4.99532 8.87781 4.91476 8.83742 4.84345C8.79703 4.77213 8.73886 4.71249 8.66857 4.67034L6.30033 3.24832C6.16178 3.16488 6.0031 3.12079 5.84136 3.12079C5.67963 3.12079 5.52095 3.16488 5.3824 3.24832L3.01416 4.6683C2.94387 4.71045 2.8857 4.77009 2.84531 4.84141C2.80492 4.91272 2.78369 4.99328 2.78369 5.07524C2.78369 5.1572 2.80492 5.23777 2.84531 5.30908C2.8857 5.3804 2.94387 5.44004 3.01416 5.48219V5.48423ZM5.77583 3.90336C5.79563 3.8915 5.81828 3.88523 5.84136 3.88523C5.86445 3.88523 5.88709 3.8915 5.90689 3.90336L7.86029 5.07626L5.90689 6.24917C5.88709 6.26103 5.86445 6.2673 5.84136 6.2673C5.81828 6.2673 5.79563 6.26103 5.77583 6.24917L3.82244 5.07626L5.77583 3.90336Z" fill="white"/>
<path d="M6.16927 7.58295C6.07021 7.64237 5.95687 7.67375 5.84136 7.67375C5.72585 7.67375 5.61251 7.64237 5.51346 7.58295L3.36093 6.29148C3.30289 6.25665 3.23665 6.23783 3.16897 6.23697C3.10129 6.2361 3.03459 6.25322 2.97569 6.28656C2.91678 6.3199 2.86778 6.36828 2.83368 6.42675C2.79959 6.48522 2.78162 6.5517 2.78162 6.61938V6.61938C2.78162 6.68542 2.79872 6.75032 2.83125 6.80778C2.86378 6.86524 2.91063 6.9133 2.96724 6.94729L5.11977 8.23799C5.33763 8.36911 5.58709 8.43839 5.84136 8.43839C6.09563 8.43839 6.3451 8.36911 6.56295 8.23799L8.71548 6.94652C8.77199 6.91261 8.81877 6.86467 8.85129 6.80735C8.88381 6.75003 8.90097 6.68529 8.90111 6.61938C8.9011 6.5517 8.88314 6.48522 8.84904 6.42675C8.81495 6.36828 8.76594 6.3199 8.70704 6.28656C8.64813 6.25322 8.58143 6.2361 8.51375 6.23697C8.44607 6.23783 8.37983 6.25665 8.3218 6.29148L6.16927 7.58295Z" fill="white"/>
</g>
<defs>
<clipPath id="clip0_1_380">
<rect width="6.11949" height="6.11949" fill="white" transform="translate(2.78162 2.78143)"/>
</clipPath>
</defs>
</svg>
