<svg width="68" height="69" viewBox="0 0 68 69" fill="none" xmlns="http://www.w3.org/2000/svg">
<path d="M24.0137 59.983C18.6255 57.4739 14.2341 53.6841 10.8396 48.6136C7.4471 43.5432 5.75086 37.8193 5.75086 31.442C5.75086 30.083 5.82857 28.75 5.984 27.4432C6.13943 26.1364 6.37257 24.8557 6.68343 23.6011L3.10857 25.7182L0 20.308L14.8434 11.683L23.392 26.5807L17.952 29.717L13.7554 22.3466C13.1855 23.758 12.7586 25.2216 12.4747 26.7375C12.1887 28.2534 12.0457 29.8216 12.0457 31.442C12.0457 36.5125 13.4187 41.1261 16.1646 45.2828C18.9105 49.4375 22.563 52.508 27.1223 54.4943L24.0137 59.983ZM47.7943 21.9545V15.6818H56.2651C53.8819 12.7023 51.0065 10.3887 47.6389 8.74105C44.2712 7.0955 40.6964 6.27273 36.9143 6.27273C34.0648 6.27273 31.3707 6.71705 28.832 7.60568C26.2933 8.49432 23.9619 9.74886 21.8377 11.3693L18.7291 5.88068C21.3196 4.05114 24.1308 2.61364 27.1627 1.56818C30.1925 0.522727 33.4171 0 36.8366 0C40.9295 0 44.8536 0.7705 48.6087 2.3115C52.366 3.85459 55.7211 6.08977 58.6743 9.01705V4.70455H64.8914V21.9545H47.7943ZM45.7737 69L30.9303 60.375L39.4789 45.4773L44.8411 48.6136L40.4114 56.2977C46.525 55.4091 51.6158 52.625 55.6838 47.9456C59.7499 43.2682 61.7829 37.767 61.7829 31.442C61.7829 30.867 61.7704 30.3182 61.7456 29.7955C61.7186 29.2727 61.6533 28.75 61.5497 28.2273H67.8446C67.8964 28.75 67.9358 29.2602 67.9627 29.7578C67.9876 30.2534 68 30.7886 68 31.3636C68 38.4205 65.9152 44.7329 61.7456 50.301C57.5739 55.867 52.1463 59.617 45.4629 61.5511L48.8823 63.5898L45.7737 69Z" fill="#99D3B2"/>
</svg>
