<svg width="20" height="22" viewBox="0 0 20 22" fill="none" xmlns="http://www.w3.org/2000/svg">
<path d="M0 20V2H6.175C6.35833 1.41667 6.71667 0.937333 7.25 0.562C7.78333 0.187333 8.36667 0 9 0C9.66667 0 10.2627 0.187333 10.788 0.562C11.3127 0.937333 11.6667 1.41667 11.85 2H18V9H16V4H14V7H4V4H2V18H7V20H0ZM18.6 22L15.9 19.3C15.55 19.5 15.175 19.6667 14.775 19.8C14.375 19.9333 13.95 20 13.5 20C12.25 20 11.1873 19.5627 10.312 18.688C9.43733 17.8127 9 16.75 9 15.5C9 14.25 9.43733 13.1873 10.312 12.312C11.1873 11.4373 12.25 11 13.5 11C14.75 11 15.8127 11.4373 16.688 12.312C17.5627 13.1873 18 14.25 18 15.5C18 15.95 17.9333 16.375 17.8 16.775C17.6667 17.175 17.5 17.55 17.3 17.9L20 20.6L18.6 22ZM13.5 18C14.2 18 14.7917 17.7583 15.275 17.275C15.7583 16.7917 16 16.2 16 15.5C16 14.8 15.7583 14.2083 15.275 13.725C14.7917 13.2417 14.2 13 13.5 13C12.8 13 12.2083 13.2417 11.725 13.725C11.2417 14.2083 11 14.8 11 15.5C11 16.2 11.2417 16.7917 11.725 17.275C12.2083 17.7583 12.8 18 13.5 18ZM9 4C9.28333 4 9.521 3.904 9.713 3.712C9.90433 3.52067 10 3.28333 10 3C10 2.71667 9.90433 2.479 9.713 2.287C9.521 2.09567 9.28333 2 9 2C8.71667 2 8.47933 2.09567 8.288 2.287C8.096 2.479 8 2.71667 8 3C8 3.28333 8.096 3.52067 8.288 3.712C8.47933 3.904 8.71667 4 9 4Z" fill="#DFBD2C"/>
</svg>
