<svg width="54" height="55" viewBox="0 0 54 55" fill="none" xmlns="http://www.w3.org/2000/svg">
<path d="M34.2941 18.6725L22.7279 30.4975L18.2794 25.96C18.0377 25.6721 17.7403 25.4383 17.4058 25.2732C17.0713 25.1082 16.707 25.0154 16.3357 25.0008C15.9644 24.9862 15.5941 25.05 15.2482 25.1882C14.9022 25.3265 14.588 25.5362 14.3252 25.8042C14.0625 26.0722 13.8569 26.3927 13.7213 26.7456C13.5858 27.0985 13.5232 27.4762 13.5376 27.8549C13.5519 28.2336 13.6428 28.6052 13.8047 28.9464C13.9665 29.2876 14.1957 29.591 14.4779 29.8375L20.8137 36.3275C21.0657 36.5824 21.3644 36.784 21.6929 36.9209C22.0214 37.0577 22.3731 37.1271 22.7279 37.125C23.4352 37.122 24.113 36.8355 24.6152 36.3275L38.0956 22.5775C38.3483 22.3218 38.5489 22.0177 38.6857 21.6826C38.8226 21.3475 38.8931 20.988 38.8931 20.625C38.8931 20.262 38.8226 19.9025 38.6857 19.5674C38.5489 19.2323 38.3483 18.9281 38.0956 18.6725C37.5904 18.1603 36.9071 17.8728 36.1949 17.8728C35.4826 17.8728 34.7993 18.1603 34.2941 18.6725ZM26.9608 0C21.6285 0 16.4159 1.61285 11.9822 4.63458C7.54851 7.65632 4.09288 11.9512 2.05228 16.9762C0.0116817 22.0012 -0.522232 27.5305 0.518056 32.865C1.55834 38.1995 4.12611 43.0995 7.89664 46.9454C11.6672 50.7914 16.4711 53.4105 21.701 54.4716C26.9309 55.5327 32.3518 54.9881 37.2782 52.9067C42.2047 50.8253 46.4154 47.3005 49.3779 42.7782C52.3403 38.2558 53.9216 32.939 53.9216 27.5C53.9216 23.8886 53.2242 20.3127 51.8693 16.9762C50.5144 13.6397 48.5285 10.6082 46.0249 8.05456C43.5214 5.50095 40.5493 3.47532 37.2782 2.09331C34.0072 0.711308 30.5013 0 26.9608 0ZM26.9608 49.5C22.6949 49.5 18.5248 48.2097 14.9779 45.7923C11.431 43.3749 8.66646 39.939 7.03398 35.919C5.4015 31.8991 4.97437 27.4756 5.8066 23.208C6.63883 18.9404 8.69304 15.0204 11.7095 11.9436C14.7259 8.86689 18.5691 6.7716 22.753 5.92272C26.9369 5.07385 31.2736 5.50952 35.2147 7.17465C39.1559 8.83978 42.5245 11.6596 44.8944 15.2775C47.2644 18.8953 48.5294 23.1488 48.5294 27.5C48.5294 33.3348 46.257 38.9305 42.2121 43.0563C38.1672 47.1821 32.6811 49.5 26.9608 49.5Z" fill="#99D3B2"/>
</svg>
