<svg width="12" height="12" viewBox="0 0 12 12" fill="none" xmlns="http://www.w3.org/2000/svg">
<circle cx="5.84133" cy="5.84133" r="5.84133" fill="#DFBD2C"/>
<g clip-path="url(#clip0_1_376)">
<path d="M6.35136 5.58617H7.23384C7.35123 5.50387 7.47285 5.42778 7.59821 5.35822C7.58826 5.26286 7.57475 5.16903 7.55894 5.07622H7.1163C7.04867 5.07622 6.98382 5.04935 6.936 5.00153C6.88818 4.95372 6.86132 4.88886 6.86132 4.82124C6.86132 4.75361 6.88818 4.68876 6.936 4.64094C6.98382 4.59312 7.04867 4.56626 7.1163 4.56626H7.44216C7.39155 4.39231 7.32937 4.22195 7.25603 4.0563H6.35136C6.28374 4.0563 6.21888 4.02944 6.17107 3.98162C6.12325 3.9338 6.09638 3.86895 6.09638 3.80132C6.09638 3.7337 6.12325 3.66884 6.17107 3.62103C6.21888 3.57321 6.28374 3.54634 6.35136 3.54634H6.97963C6.34218 2.54147 5.34037 2.54173 4.70318 3.54634H5.33145C5.39907 3.54634 5.46393 3.57321 5.51174 3.62103C5.55956 3.66884 5.58643 3.7337 5.58643 3.80132C5.58643 3.86895 5.55956 3.9338 5.51174 3.98162C5.46393 4.02944 5.39907 4.0563 5.33145 4.0563H4.42678C4.35344 4.22195 4.29126 4.39231 4.24065 4.56626H4.56651C4.63414 4.56626 4.69899 4.59312 4.74681 4.64094C4.79463 4.68876 4.82149 4.75361 4.82149 4.82124C4.82149 4.88886 4.79463 4.95372 4.74681 5.00153C4.69899 5.04935 4.63414 5.07622 4.56651 5.07622H4.12387C4.10806 5.16903 4.09454 5.26286 4.0846 5.35822C4.20996 5.42778 4.33158 5.50387 4.44897 5.58617H5.33145C5.39907 5.58617 5.46393 5.61304 5.51174 5.66086C5.55956 5.70867 5.58643 5.77353 5.58643 5.84115C5.58643 5.90878 5.55956 5.97363 5.51174 6.02145C5.46393 6.06927 5.39907 6.09613 5.33145 6.09613H5.05709C5.3617 6.40316 5.62532 6.74829 5.8414 7.12293C6.05749 6.74829 6.32111 6.40316 6.62572 6.09613H6.35136C6.28374 6.09613 6.21888 6.06927 6.17107 6.02145C6.12325 5.97363 6.09638 5.90878 6.09638 5.84115C6.09638 5.77353 6.12325 5.70867 6.17107 5.66086C6.21888 5.61304 6.28374 5.58617 6.35136 5.58617ZM5.58643 5.07622C5.5188 5.07622 5.45395 5.04935 5.40613 5.00153C5.35831 4.95372 5.33145 4.88886 5.33145 4.82124C5.33145 4.75361 5.35831 4.68876 5.40613 4.64094C5.45395 4.59312 5.5188 4.56626 5.58643 4.56626H6.09638C6.16401 4.56626 6.22886 4.59312 6.27668 4.64094C6.3245 4.68876 6.35136 4.75361 6.35136 4.82124C6.35136 4.88886 6.3245 4.95372 6.27668 5.00153C6.22886 5.04935 6.16401 5.07622 6.09638 5.07622H5.58643ZM8.64617 5.89648C8.3045 9.90858 3.37907 9.91036 3.03664 5.89648C3.03264 5.84872 3.04074 5.80071 3.0602 5.75691C3.07965 5.7131 3.10983 5.6749 3.14794 5.64583C3.18605 5.61676 3.23088 5.59776 3.27827 5.59059C3.32566 5.58342 3.3741 5.5883 3.41911 5.60479C4.97218 6.20909 5.65833 7.728 5.8414 8.39094C6.02448 7.728 6.71063 6.20909 8.2637 5.60479C8.30871 5.5883 8.35715 5.58342 8.40454 5.59059C8.45193 5.59776 8.49676 5.61676 8.53487 5.64583C8.57298 5.6749 8.60316 5.7131 8.62261 5.75691C8.64207 5.80071 8.65017 5.84872 8.64617 5.89648Z" fill="white"/>
</g>
<defs>
<clipPath id="clip0_1_376">
<rect width="6.11949" height="6.11949" fill="white" transform="translate(2.78162 2.78143)"/>
</clipPath>
</defs>
</svg>
