<svg width="23" height="23" viewBox="0 0 23 23" fill="none" xmlns="http://www.w3.org/2000/svg">
<path d="M11.5 22C17.299 22 22 17.299 22 11.5C22 5.70101 17.299 1 11.5 1C5.70101 1 1 5.70101 1 11.5C1 17.299 5.70101 22 11.5 22Z" stroke="#D3D3D3" stroke-width="2" stroke-linecap="round" stroke-linejoin="round"/>
<path d="M8.44458 8.34994C8.69144 7.64819 9.17869 7.05645 9.82003 6.67953C10.4614 6.30261 11.2154 6.16482 11.9486 6.29059C12.6818 6.41635 13.3468 6.79754 13.8259 7.36664C14.305 7.93575 14.5672 8.65604 14.5661 9.39994C14.5661 11.4999 11.4161 12.5499 11.4161 12.5499" stroke="#DFBD2C" stroke-width="2" stroke-linecap="round" stroke-linejoin="round"/>
<path d="M11.5 16.75H11.511" stroke="#DFBD2C" stroke-width="2" stroke-linecap="round" stroke-linejoin="round"/>
</svg>
