<svg width="16" height="16" viewBox="0 0 16 16" fill="none" xmlns="http://www.w3.org/2000/svg">
<path d="M11.3333 11.9975V16H14C15.1046 16 16 15.104 16 13.9988V7.91431C16.0002 7.56775 15.8656 7.23473 15.6247 6.98573L9.95934 0.857227C8.95972 -0.225009 7.27259 -0.291456 6.19103 0.708791C6.13966 0.756321 6.09016 0.80582 6.04269 0.857227L0.387344 6.98373C0.139156 7.23376 -9.37027e-05 7.57191 4.73073e-08 7.92431V13.9988C4.73073e-08 15.104 0.895437 16 2 16H4.66666V11.9975C4.67912 10.1785 6.14684 8.69308 7.91894 8.6503C9.75031 8.60608 11.3194 10.1168 11.3333 11.9975Z" fill="#DFBD2C"/>
<path d="M8 10C6.89544 10 6 10.8954 6 12V16H10V12C10 10.8954 9.10456 10 8 10Z" fill="#DFBD2C"/>
</svg>
