<svg width="91" height="58" viewBox="0 0 91 58" fill="none" xmlns="http://www.w3.org/2000/svg">
<path d="M32.261 49.9689C32.261 54.208 28.7768 57.6765 24.5184 57.6765C20.2599 57.6765 16.7757 54.208 16.7757 49.9689H21.9375C21.9375 51.3819 23.0989 52.5381 24.5184 52.5381C25.9379 52.5381 27.0993 51.3819 27.0993 49.9689C27.0993 48.5558 25.9379 47.3997 24.5184 47.3997H0V42.2612H24.5184C28.7768 42.2612 32.261 45.7297 32.261 49.9689ZM43.875 22.9922C43.875 18.0337 39.823 14 34.8419 14C29.8608 14 25.8088 18.0337 25.8088 22.9922H30.9706C30.9706 20.8598 32.6998 19.1384 34.8419 19.1384C36.984 19.1384 38.7132 20.8598 38.7132 22.9922C38.7132 25.1247 36.984 26.846 34.8419 26.846H0V31.9844H34.8419C39.823 31.9844 43.875 27.9508 43.875 22.9922ZM42.5846 34.5536H0V39.692H42.5846C44.7267 39.692 46.4559 41.4134 46.4559 43.5458C46.4559 45.6783 44.7267 47.3997 42.5846 47.3997V52.5381C47.5657 52.5381 51.6176 48.5044 51.6176 43.5458C51.6176 38.5873 47.5657 34.5536 42.5846 34.5536Z" fill="#DFBD2C"/>
<path d="M55.0993 0C54.0849 0 53.0933 0.307907 52.2499 0.884785C51.4065 1.46166 50.7492 2.2816 50.361 3.24091C49.9728 4.20022 49.8713 5.25582 50.0691 6.27422C50.267 7.29262 50.7555 8.22808 51.4728 8.96231C52.19 9.69654 53.1039 10.1965 54.0987 10.3991C55.0936 10.6017 56.1248 10.4977 57.0619 10.1004C57.9991 9.70301 58.8001 9.0301 59.3636 8.16674C59.9272 7.30339 60.228 6.28835 60.228 5.25C60.2264 3.85809 59.6856 2.52364 58.7241 1.53942C57.7626 0.555189 56.459 0.00156326 55.0993 0ZM55.0993 7.5C54.6646 7.5 54.2396 7.36804 53.8781 7.12081C53.5167 6.87357 53.2349 6.52217 53.0686 6.11104C52.9022 5.6999 52.8587 5.2475 52.9435 4.81105C53.0283 4.37459 53.2377 3.97368 53.5451 3.65901C53.8524 3.34434 54.2441 3.13005 54.6705 3.04323C55.0968 2.95642 55.5388 3.00097 55.9404 3.17127C56.342 3.34157 56.6853 3.62996 56.9268 3.99997C57.1684 4.36998 57.2973 4.80499 57.2973 5.25C57.2966 5.84652 57.0648 6.41842 56.6527 6.84022C56.2407 7.26203 55.682 7.4993 55.0993 7.5ZM65.3566 11.5C64.3423 11.5 63.3507 11.8079 62.5073 12.3848C61.6639 12.9617 61.0065 13.7816 60.6183 14.7409C60.2302 15.7003 60.1286 16.7559 60.3265 17.7743C60.5244 18.7927 61.0128 19.7281 61.7301 20.4623C62.4474 21.1966 63.3612 21.6966 64.3561 21.8992C65.3509 22.1017 66.3821 21.9978 67.3193 21.6004C68.2564 21.203 69.0574 20.5301 69.621 19.6668C70.1845 18.8034 70.4853 17.7884 70.4853 16.75C70.4838 15.3581 69.9429 14.0237 68.9815 13.0394C68.02 12.0552 66.7164 11.5016 65.3566 11.5ZM65.3566 19C64.9219 19 64.4969 18.8681 64.1355 18.6208C63.774 18.3736 63.4923 18.0222 63.3259 17.6111C63.1596 17.1999 63.116 16.7475 63.2009 16.3111C63.2857 15.8746 63.495 15.4737 63.8024 15.159C64.1098 14.8444 64.5014 14.6301 64.9278 14.5433C65.3542 14.4564 65.7961 14.501 66.1978 14.6713C66.5994 14.8416 66.9427 15.13 67.1842 15.5C67.4257 15.87 67.5546 16.305 67.5546 16.75C67.554 17.3466 67.3222 17.9184 66.9101 18.3403C66.498 18.7621 65.9394 18.9993 65.3566 19ZM55.0993 33.5C56.1136 33.5 57.1052 33.1921 57.9486 32.6152C58.792 32.0383 59.4494 31.2184 59.8376 30.2591C60.2257 29.2997 60.3273 28.2441 60.1294 27.2257C59.9315 26.2073 59.4431 25.2719 58.7258 24.5377C58.0085 23.8034 57.0947 23.3034 56.0998 23.1008C55.105 22.8983 54.0738 23.0022 53.1366 23.3996C52.1995 23.797 51.3985 24.4699 50.8349 25.3332C50.2714 26.1966 49.9706 27.2116 49.9706 28.25C49.9721 29.6419 50.513 30.9763 51.4744 31.9606C52.4359 32.9448 53.7395 33.4984 55.0993 33.5ZM55.0993 26C55.534 26 55.959 26.1319 56.3204 26.3792C56.6819 26.6264 56.9636 26.9778 57.13 27.3889C57.2963 27.8001 57.3399 28.2525 57.255 28.6889C57.1702 29.1254 56.9609 29.5263 56.6535 29.841C56.3461 30.1556 55.9545 30.3699 55.5281 30.4567C55.1017 30.5436 54.6598 30.499 54.2581 30.3287C53.8565 30.1584 53.5132 29.87 53.2717 29.5C53.0302 29.13 52.9013 28.695 52.9013 28.25C52.9019 27.6534 53.1337 27.0816 53.5458 26.6597C53.9579 26.2379 54.5165 26.0007 55.0993 26ZM65.3566 45C66.371 45 67.3626 44.6921 68.206 44.1152C69.0494 43.5383 69.7067 42.7184 70.0949 41.7591C70.4831 40.7998 70.5846 39.7442 70.3868 38.7258C70.1889 37.7074 69.7004 36.7719 68.9831 36.0377C68.2659 35.3035 67.352 34.8034 66.3572 34.6009C65.3623 34.3983 64.3311 34.5023 63.394 34.8996C62.4568 35.297 61.6558 35.9699 61.0923 36.8333C60.5287 37.6966 60.228 38.7116 60.228 39.75C60.2295 41.1419 60.7703 42.4764 61.7318 43.4606C62.6933 44.4448 63.9969 44.9984 65.3566 45ZM65.3566 37.5C65.7914 37.5 66.2163 37.632 66.5778 37.8792C66.9392 38.1264 67.221 38.4778 67.3873 38.889C67.5537 39.3001 67.5972 39.7525 67.5124 40.1889C67.4276 40.6254 67.2182 41.0263 66.9109 41.341C66.6035 41.6557 66.2118 41.8699 65.7854 41.9568C65.3591 42.0436 64.9171 41.999 64.5155 41.8287C64.1139 41.6584 63.7706 41.37 63.5291 41C63.2875 40.63 63.1586 40.195 63.1586 39.75C63.1593 39.1535 63.3911 38.5816 63.8032 38.1598C64.2152 37.738 64.7739 37.5007 65.3566 37.5ZM75.614 0C74.5996 0 73.608 0.307907 72.7646 0.884785C71.9212 1.46166 71.2639 2.2816 70.8757 3.24091C70.4875 4.20022 70.386 5.25582 70.5838 6.27422C70.7817 7.29262 71.2702 8.22808 71.9875 8.96231C72.7047 9.69654 73.6186 10.1965 74.6134 10.3991C75.6083 10.6017 76.6395 10.4977 77.5766 10.1004C78.5138 9.70301 79.3148 9.0301 79.8783 8.16674C80.4419 7.30339 80.7427 6.28835 80.7427 5.25C80.7411 3.85809 80.2003 2.52364 79.2388 1.53942C78.2773 0.555189 76.9737 0.00156326 75.614 0ZM75.614 7.5C75.1793 7.5 74.7543 7.36804 74.3928 7.12081C74.0314 6.87357 73.7497 6.52217 73.5833 6.11104C73.4169 5.6999 73.3734 5.2475 73.4582 4.81105C73.543 4.37459 73.7524 3.97368 74.0598 3.65901C74.3672 3.34434 74.7588 3.13005 75.1852 3.04323C75.6115 2.95642 76.0535 3.00097 76.4551 3.17127C76.8567 3.34157 77.2 3.62996 77.4416 3.99997C77.6831 4.36998 77.812 4.80499 77.812 5.25C77.8113 5.84652 77.5795 6.41842 77.1675 6.84022C76.7554 7.26203 76.1967 7.4993 75.614 7.5ZM85.8713 11.5C84.857 11.5 83.8654 11.8079 83.022 12.3848C82.1786 12.9617 81.5212 13.7816 81.1331 14.7409C80.7449 15.7003 80.6433 16.7559 80.8412 17.7743C81.0391 18.7927 81.5276 19.7281 82.2448 20.4623C82.9621 21.1966 83.8759 21.6966 84.8708 21.8992C85.8656 22.1017 86.8968 21.9978 87.834 21.6004C88.7711 21.203 89.5721 20.5301 90.1357 19.6668C90.6992 18.8034 91 17.7884 91 16.75C90.9985 15.3581 90.4576 14.0237 89.4962 13.0394C88.5347 12.0552 87.2311 11.5016 85.8713 11.5ZM85.8713 19C85.4366 19 85.0116 18.8681 84.6502 18.6208C84.2887 18.3736 84.007 18.0222 83.8406 17.6111C83.6743 17.1999 83.6307 16.7475 83.7156 16.3111C83.8004 15.8746 84.0097 15.4737 84.3171 15.159C84.6245 14.8444 85.0162 14.6301 85.4425 14.5433C85.8689 14.4564 86.3108 14.501 86.7125 14.6713C87.1141 14.8416 87.4574 15.13 87.6989 15.5C87.9404 15.87 88.0693 16.305 88.0693 16.75C88.0687 17.3466 87.8369 17.9184 87.4248 18.3403C87.0127 18.7621 86.4541 18.9993 85.8713 19ZM75.614 33.5C76.6283 33.5 77.6199 33.1921 78.4633 32.6152C79.3067 32.0383 79.9641 31.2184 80.3523 30.2591C80.7404 29.2997 80.842 28.2441 80.6441 27.2257C80.4462 26.2073 79.9578 25.2719 79.2405 24.5377C78.5232 23.8034 77.6094 23.3034 76.6145 23.1008C75.6197 22.8983 74.5885 23.0022 73.6513 23.3996C72.7142 23.797 71.9132 24.4699 71.3496 25.3332C70.7861 26.1966 70.4853 27.2116 70.4853 28.25C70.4868 29.6419 71.0277 30.9763 71.9891 31.9606C72.9506 32.9448 74.2542 33.4984 75.614 33.5ZM75.614 26C76.0487 26 76.4737 26.1319 76.8351 26.3792C77.1966 26.6264 77.4783 26.9778 77.6447 27.3889C77.811 27.8001 77.8546 28.2525 77.7697 28.6889C77.6849 29.1254 77.4756 29.5263 77.1682 29.841C76.8608 30.1556 76.4692 30.3699 76.0428 30.4567C75.6164 30.5436 75.1745 30.499 74.7728 30.3287C74.3712 30.1584 74.0279 29.87 73.7864 29.5C73.5449 29.13 73.416 28.695 73.416 28.25C73.4167 27.6534 73.6484 27.0816 74.0605 26.6597C74.4726 26.2379 75.0312 26.0007 75.614 26ZM85.8713 34.5C84.857 34.5 83.8654 34.8079 83.022 35.3848C82.1786 35.9617 81.5212 36.7816 81.1331 37.7409C80.7449 38.7002 80.6433 39.7558 80.8412 40.7742C81.0391 41.7926 81.5276 42.7281 82.2448 43.4623C82.9621 44.1965 83.8759 44.6965 84.8708 44.8991C85.8656 45.1017 86.8968 44.9977 87.834 44.6004C88.7711 44.203 89.5721 43.5301 90.1357 42.6667C90.6992 41.8034 91 40.7883 91 39.75C90.9985 38.3581 90.4576 37.0236 89.4962 36.0394C88.5347 35.0552 87.2311 34.5016 85.8713 34.5ZM85.8713 42C85.4366 42 85.0116 41.868 84.6502 41.6208C84.2887 41.3736 84.007 41.0222 83.8406 40.611C83.6743 40.1999 83.6307 39.7475 83.7156 39.311C83.8004 38.8746 84.0097 38.4737 84.3171 38.159C84.6245 37.8443 85.0162 37.6301 85.4425 37.5432C85.8689 37.4564 86.3108 37.501 86.7125 37.6713C87.1141 37.8416 87.4574 38.13 87.6989 38.5C87.9404 38.87 88.0693 39.305 88.0693 39.75C88.0687 40.3465 87.8369 40.9184 87.4248 41.3402C87.0127 41.762 86.4541 41.9993 85.8713 42Z" fill="#DFBD2C"/>
</svg>
