<svg width="72" height="65" viewBox="0 0 72 65" fill="none" xmlns="http://www.w3.org/2000/svg">
<path d="M29.1642 13.65C29.1642 7.475 25.2757 1.95 19.4428 0V12.025H9.72141V0C3.88856 1.95 0 7.475 0 13.65C0 19.825 3.88856 25.35 9.72141 27.3V63.05C9.72141 64.35 10.3695 65 11.3416 65H17.8226C18.7947 65 19.4428 64.35 19.4428 63.375V27.625C25.2757 25.675 29.1642 20.15 29.1642 13.65ZM48.607 19.5C35.9692 19.825 25.9238 29.9 25.9238 42.25C25.9238 54.925 35.9692 65 48.607 65C61.2449 65 71.2903 54.925 71.2903 42.25C71.2903 29.575 61.2449 19.5 48.607 19.5ZM48.607 58.5C39.5337 58.5 32.4047 51.35 32.4047 42.25C32.4047 33.15 39.5337 26 48.607 26C57.6804 26 64.8094 33.15 64.8094 42.25C64.8094 51.35 57.6804 58.5 48.607 58.5ZM45.3666 29.25V45.5L57.0323 52.65L59.6246 48.75L50.2273 43.225V29.25H45.3666Z" fill="#D3D3D3"/>
</svg>
