<svg width="34" height="43" viewBox="0 0 34 43" fill="none" xmlns="http://www.w3.org/2000/svg">
<path d="M17.0012 0.999998L16.9988 1L10.8894 37.251L10.0635 37.8148C10.0636 37.8151 10.0638 37.8153 10.064 37.8156C10.8528 38.971 11.89 39.9174 13.0954 40.5724C14.3016 41.2278 15.6396 41.5714 17 41.5714C18.3604 41.5714 19.6984 41.2278 20.9046 40.5724C22.1099 39.9174 23.147 38.9711 23.9358 37.8159C26.9034 33.4805 29.1584 29.6599 30.6749 26.3824C32.1831 23.1228 33 20.3183 33 18.0393V18.0381C32.995 13.5415 31.3228 9.2183 28.3316 6.01981C25.3383 2.81907 21.2651 1.00502 17.0012 0.999998ZM17 23.4325C16.0244 23.4325 15.0645 23.1234 14.2416 22.5354C13.4177 21.9467 12.766 21.1027 12.3787 20.1028C11.9912 19.1026 11.889 17.9984 12.0872 16.9326C12.2854 15.867 12.7733 14.8967 13.4797 14.1412C14.1854 13.3865 15.0762 12.881 16.0353 12.677C16.9937 12.4731 17.988 12.577 18.8955 12.979C19.804 13.3814 20.5914 14.0679 21.1502 14.9623C21.7094 15.8572 22.0114 16.9159 22.0114 18.0039C22.0114 19.4645 21.4682 20.8529 20.5203 21.8666C19.5745 22.878 18.3066 23.4325 17 23.4325Z" fill="#191A17" stroke="white" stroke-width="2"/>
</svg>
