<svg width="76" height="65" viewBox="0 0 76 65" fill="none" xmlns="http://www.w3.org/2000/svg">
<path d="M47.3958 53.5294C47.3958 59.8382 42.2771 65 36.0208 65C29.7646 65 24.6458 59.8382 24.6458 53.5294H32.2292C32.2292 55.6324 33.9354 57.3529 36.0208 57.3529C38.1063 57.3529 39.8125 55.6324 39.8125 53.5294C39.8125 51.4265 38.1063 49.7059 36.0208 49.7059H0V42.0588H36.0208C42.2771 42.0588 47.3958 47.2206 47.3958 53.5294ZM64.4583 13.3824C64.4583 6.00294 58.5054 0 51.1875 0C43.8696 0 37.9167 6.00294 37.9167 13.3824H45.5C45.5 10.2088 48.0404 7.64706 51.1875 7.64706C54.3346 7.64706 56.875 10.2088 56.875 13.3824C56.875 16.5559 54.3346 19.1176 51.1875 19.1176H0V26.7647H51.1875C58.5054 26.7647 64.4583 20.7618 64.4583 13.3824ZM62.5625 30.5882H0V38.2353H62.5625C65.7096 38.2353 68.25 40.7971 68.25 43.9706C68.25 47.1441 65.7096 49.7059 62.5625 49.7059V57.3529C69.8804 57.3529 75.8333 51.35 75.8333 43.9706C75.8333 36.5912 69.8804 30.5882 62.5625 30.5882Z" fill="#65DAFF"/>
</svg>
