<svg width="11" height="11" viewBox="0 0 11 11" fill="none" xmlns="http://www.w3.org/2000/svg">
<path d="M5.5 7.7C5.65583 7.7 5.78655 7.6472 5.89215 7.5416C5.99738 7.43637 6.05 7.30583 6.05 7.15V5.39L6.545 5.885C6.64583 5.98583 6.77417 6.03625 6.93 6.03625C7.08583 6.03625 7.21417 5.98583 7.315 5.885C7.41583 5.78417 7.46625 5.65583 7.46625 5.5C7.46625 5.34417 7.41583 5.21583 7.315 5.115L5.885 3.685C5.83 3.63 5.77042 3.59095 5.70625 3.56785C5.64208 3.54512 5.57333 3.53375 5.5 3.53375C5.42667 3.53375 5.35792 3.54512 5.29375 3.56785C5.22958 3.59095 5.17 3.63 5.115 3.685L3.685 5.115C3.58417 5.21583 3.53375 5.34417 3.53375 5.5C3.53375 5.65583 3.58417 5.78417 3.685 5.885C3.78583 5.98583 3.91417 6.03625 4.07 6.03625C4.22583 6.03625 4.35417 5.98583 4.455 5.885L4.95 5.39V7.15C4.95 7.30583 5.0028 7.43637 5.1084 7.5416C5.21363 7.6472 5.34417 7.7 5.5 7.7ZM5.5 11C4.73917 11 4.02417 10.8555 3.355 10.5666C2.68583 10.278 2.10375 9.88625 1.60875 9.39125C1.11375 8.89625 0.721967 8.31417 0.4334 7.645C0.144467 6.97583 0 6.26083 0 5.5C0 4.73917 0.144467 4.02417 0.4334 3.355C0.721967 2.68583 1.11375 2.10375 1.60875 1.60875C2.10375 1.11375 2.68583 0.721783 3.355 0.43285C4.02417 0.144283 4.73917 0 5.5 0C6.26083 0 6.97583 0.144283 7.645 0.43285C8.31417 0.721783 8.89625 1.11375 9.39125 1.60875C9.88625 2.10375 10.278 2.68583 10.5666 3.355C10.8555 4.02417 11 4.73917 11 5.5C11 6.26083 10.8555 6.97583 10.5666 7.645C10.278 8.31417 9.88625 8.89625 9.39125 9.39125C8.89625 9.88625 8.31417 10.278 7.645 10.5666C6.97583 10.8555 6.26083 11 5.5 11Z" fill="#DFBD2C"/>
</svg>
