<svg width="17" height="13" viewBox="0 0 17 13" fill="none" xmlns="http://www.w3.org/2000/svg">
<path d="M0.166626 1.29167C0.166626 1.0154 0.276373 0.750448 0.471723 0.555097C0.667074 0.359747 0.932025 0.25 1.20829 0.25H15.7916C16.0679 0.25 16.3328 0.359747 16.5282 0.555097C16.7235 0.750448 16.8333 1.0154 16.8333 1.29167C16.8333 1.56793 16.7235 1.83289 16.5282 2.02824C16.3328 2.22359 16.0679 2.33333 15.7916 2.33333H1.20829C0.932025 2.33333 0.667074 2.22359 0.471723 2.02824C0.276373 1.83289 0.166626 1.56793 0.166626 1.29167ZM0.166626 6.5C0.166626 6.22373 0.276373 5.95878 0.471723 5.76343C0.667074 5.56808 0.932025 5.45833 1.20829 5.45833H15.7916C16.0679 5.45833 16.3328 5.56808 16.5282 5.76343C16.7235 5.95878 16.8333 6.22373 16.8333 6.5C16.8333 6.77627 16.7235 7.04122 16.5282 7.23657C16.3328 7.43192 16.0679 7.54167 15.7916 7.54167H1.20829C0.932025 7.54167 0.667074 7.43192 0.471723 7.23657C0.276373 7.04122 0.166626 6.77627 0.166626 6.5ZM0.166626 11.7083C0.166626 11.4321 0.276373 11.1671 0.471723 10.9718C0.667074 10.7764 0.932025 10.6667 1.20829 10.6667H15.7916C16.0679 10.6667 16.3328 10.7764 16.5282 10.9718C16.7235 11.1671 16.8333 11.4321 16.8333 11.7083C16.8333 11.9846 16.7235 12.2496 16.5282 12.4449C16.3328 12.6403 16.0679 12.75 15.7916 12.75H1.20829C0.932025 12.75 0.667074 12.6403 0.471723 12.4449C0.276373 12.2496 0.166626 11.9846 0.166626 11.7083Z" fill="#DFBD2C"/>
</svg>
