<svg width="28" height="26" viewBox="0 0 28 26" fill="none" xmlns="http://www.w3.org/2000/svg">
<path d="M14.9531 23.1396V12.9073H15.8833C16.3765 12.9068 16.8494 12.7107 17.1982 12.3619C17.547 12.0131 17.7432 11.5402 17.7437 11.0469V7.32611C17.7432 6.83285 17.547 6.35993 17.1982 6.01114C16.8494 5.66236 16.3765 5.46619 15.8833 5.4657H12.1625C11.6692 5.46619 11.1963 5.66236 10.8475 6.01114C10.4987 6.35993 10.3025 6.83285 10.302 7.32611V11.0469C10.3025 11.5402 10.4987 12.0131 10.8475 12.3619C11.1963 12.7107 11.6692 12.9068 12.1625 12.9073H13.0927V23.1396H1V25H27.0457V23.1396H14.9531ZM12.1625 7.32611H15.8833L15.8851 11.0469H12.1625V7.32611Z" fill="#DFBD2C" stroke="#DFBD2C" stroke-width="0.4" stroke-linejoin="round"/>
<path d="M7.82023 14.0396C7.13754 13.4288 6.59138 12.6809 6.21746 11.8447C5.84354 11.0084 5.65027 10.1027 5.65027 9.18671C5.65027 8.27069 5.84354 7.36497 6.21746 6.52874C6.59138 5.69251 7.13754 4.94459 7.82023 4.33383L9.06113 5.71984C8.57346 6.15609 8.18334 6.69033 7.91624 7.28765C7.64914 7.88497 7.51108 8.53192 7.51108 9.18624C7.51108 9.84056 7.64914 10.4875 7.91624 11.0848C8.18334 11.6822 8.57346 12.2164 9.06113 12.6526L7.82023 14.0396ZM20.2245 14.0396L18.9836 12.6536C19.4714 12.2173 19.8617 11.683 20.1289 11.0856C20.3961 10.4882 20.5342 9.84114 20.5342 9.18671C20.5342 8.53227 20.3961 7.8852 20.1289 7.2878C19.8617 6.69039 19.4714 6.15609 18.9836 5.71984L20.2245 4.33383C20.9072 4.94459 21.4534 5.69251 21.8273 6.52874C22.2012 7.36497 22.3945 8.27069 22.3945 9.18671C22.3945 10.1027 22.2012 11.0084 21.8273 11.8447C21.4534 12.6809 20.9072 13.4288 20.2245 14.0396Z" fill="#DFBD2C" stroke="#DFBD2C" stroke-width="0.4" stroke-linejoin="round"/>
<path d="M5.093 17.3725C3.82253 16.4192 2.7914 15.1832 2.08123 13.7625C1.37106 12.3417 1.00134 10.7751 1.00134 9.18673C1.00134 7.59835 1.37106 6.03178 2.08123 4.61101C2.7914 3.19023 3.82253 1.95426 5.093 1.00093L6.20925 2.48926C5.16932 3.26905 4.32525 4.28028 3.7439 5.44285C3.16255 6.60541 2.85989 7.88738 2.85989 9.18719C2.85989 10.487 3.16255 11.769 3.7439 12.9315C4.32525 14.0941 5.16932 15.1053 6.20925 15.8851L5.093 17.3725ZM22.9529 17.3725L21.8367 15.8842C22.8764 15.1043 23.7203 14.093 24.3016 12.9305C24.8828 11.7679 25.1854 10.486 25.1854 9.18626C25.1854 7.88651 24.8828 6.60461 24.3016 5.44206C23.7203 4.27951 22.8764 3.26824 21.8367 2.48833L22.9529 1C24.2236 1.95332 25.2549 3.18933 25.9651 4.61019C26.6754 6.03106 27.0452 7.59776 27.0452 9.18626C27.0452 10.7748 26.6754 12.3415 25.9651 13.7623C25.2549 15.1832 24.2236 16.4192 22.9529 17.3725Z" fill="#DFBD2C" stroke="#DFBD2C" stroke-width="0.4" stroke-linejoin="round"/>
</svg>
