<svg width="11" height="11" viewBox="0 0 11 11" fill="none" xmlns="http://www.w3.org/2000/svg">
<path d="M5.5 3.3C5.34417 3.3 5.21345 3.3528 5.10785 3.4584C5.00262 3.56363 4.95 3.69417 4.95 3.85L4.95 5.61L4.455 5.115C4.35417 5.01417 4.22583 4.96375 4.07 4.96375C3.91417 4.96375 3.78583 5.01417 3.685 5.115C3.58417 5.21583 3.53375 5.34417 3.53375 5.5C3.53375 5.65583 3.58417 5.78417 3.685 5.885L5.115 7.315C5.17 7.37 5.22958 7.40905 5.29375 7.43215C5.35792 7.45488 5.42667 7.46625 5.5 7.46625C5.57333 7.46625 5.64208 7.45488 5.70625 7.43215C5.77042 7.40905 5.83 7.37 5.885 7.315L7.315 5.885C7.41583 5.78417 7.46625 5.65583 7.46625 5.5C7.46625 5.34417 7.41583 5.21583 7.315 5.115C7.21417 5.01417 7.08583 4.96375 6.93 4.96375C6.77417 4.96375 6.64583 5.01417 6.545 5.115L6.05 5.61L6.05 3.85C6.05 3.69417 5.9972 3.56363 5.8916 3.4584C5.78637 3.3528 5.65583 3.3 5.5 3.3ZM5.5 4.72849e-07C6.26083 5.39363e-07 6.97583 0.144467 7.645 0.433401C8.31417 0.721967 8.89625 1.11375 9.39125 1.60875C9.88625 2.10375 10.278 2.68583 10.5666 3.355C10.8555 4.02417 11 4.73917 11 5.5C11 6.26083 10.8555 6.97583 10.5666 7.645C10.278 8.31417 9.88625 8.89625 9.39125 9.39125C8.89625 9.88625 8.31417 10.2782 7.645 10.5671C6.97583 10.8557 6.26083 11 5.5 11C4.73917 11 4.02417 10.8557 3.355 10.5671C2.68583 10.2782 2.10375 9.88625 1.60875 9.39125C1.11375 8.89625 0.721966 8.31417 0.433399 7.645C0.144466 6.97583 -1.49304e-06 6.26083 -1.42652e-06 5.5C-1.36001e-06 4.73917 0.144466 4.02417 0.433399 3.355C0.721967 2.68583 1.11375 2.10375 1.60875 1.60875C2.10375 1.11375 2.68583 0.721967 3.355 0.4334C4.02417 0.144467 4.73917 4.06335e-07 5.5 4.72849e-07Z" fill="#7A7786"/>
</svg>
