<svg width="13" height="13" viewBox="0 0 13 13" fill="none" xmlns="http://www.w3.org/2000/svg">
<path d="M1.44444 13C1.04722 13 0.707055 12.8587 0.423944 12.5761C0.141315 12.2929 0 11.9528 0 11.5556V1.44444C0 1.04722 0.141315 0.707055 0.423944 0.423944C0.707055 0.141315 1.04722 0 1.44444 0H5.77778C5.98241 0 6.15406 0.0690925 6.29272 0.207278C6.43091 0.345944 6.5 0.517593 6.5 0.722222C6.5 0.926852 6.43091 1.09826 6.29272 1.23644C6.15406 1.37511 5.98241 1.44444 5.77778 1.44444H1.44444V11.5556H11.5556V7.22222C11.5556 7.01759 11.6249 6.84594 11.7636 6.70728C11.9017 6.56909 12.0731 6.5 12.2778 6.5C12.4824 6.5 12.6538 6.56909 12.792 6.70728C12.9307 6.84594 13 7.01759 13 7.22222V11.5556C13 11.9528 12.8587 12.2929 12.5761 12.5761C12.2929 12.8587 11.9528 13 11.5556 13H1.44444ZM4.33333 8.66667C4.20093 8.53426 4.13472 8.36574 4.13472 8.16111C4.13472 7.95648 4.20093 7.78796 4.33333 7.65556L10.5444 1.44444H8.66667C8.46204 1.44444 8.29063 1.37511 8.15244 1.23644C8.01378 1.09826 7.94444 0.926852 7.94444 0.722222C7.94444 0.517593 8.01378 0.345944 8.15244 0.207278C8.29063 0.0690925 8.46204 0 8.66667 0H12.2778C12.4824 0 12.6538 0.0690925 12.792 0.207278C12.9307 0.345944 13 0.517593 13 0.722222V4.33333C13 4.53796 12.9307 4.70937 12.792 4.84756C12.6538 4.98622 12.4824 5.05556 12.2778 5.05556C12.0731 5.05556 11.9017 4.98622 11.7636 4.84756C11.6249 4.70937 11.5556 4.53796 11.5556 4.33333V2.45556L5.32639 8.68472C5.19398 8.81713 5.03148 8.88333 4.83889 8.88333C4.6463 8.88333 4.47778 8.81111 4.33333 8.66667Z" fill="#DFBD2C"/>
</svg>
