<svg width="41" height="41" viewBox="0 0 41 41" fill="none" xmlns="http://www.w3.org/2000/svg">
<path d="M23.8584 40.9963C23.6269 40.9973 23.3977 40.9501 23.1853 40.8579C22.769 40.6794 22.4406 40.3428 22.2724 39.9221C22.1042 39.5015 22.11 39.0313 22.2885 38.6149L27.4135 26.6565C27.4997 26.4472 27.6267 26.2571 27.787 26.0973C27.9474 25.9375 28.1379 25.8111 28.3475 25.7256C28.5571 25.64 28.7816 25.597 29.008 25.599C29.2344 25.601 29.4581 25.6479 29.6662 25.7371C29.8742 25.8264 30.0625 25.956 30.22 26.1186C30.3776 26.2812 30.5012 26.4735 30.5837 26.6843C30.6663 26.8951 30.7061 27.1202 30.7009 27.3466C30.6957 27.5729 30.6456 27.7959 30.5534 28.0027L25.4284 39.9611C25.2967 40.2683 25.0777 40.5301 24.7987 40.7141C24.5196 40.8982 24.1927 40.9963 23.8584 40.9963ZM17.0251 40.9963C16.7936 40.9973 16.5644 40.9501 16.352 40.8579C15.9357 40.6794 15.6073 40.3428 15.4391 39.9221C15.2709 39.5015 15.2767 39.0313 15.4551 38.6149L20.5801 26.6565C20.7629 26.2466 21.0996 25.925 21.5176 25.7613C21.9355 25.5976 22.4011 25.605 22.8137 25.7819C23.2262 25.9588 23.5526 26.2909 23.7222 26.7065C23.8918 27.1221 23.891 27.5877 23.7201 28.0027L18.5951 39.9611C18.4634 40.2683 18.2444 40.5301 17.9653 40.7141C17.6863 40.8982 17.3594 40.9963 17.0251 40.9963ZM10.1918 40.9963C9.96024 40.9973 9.73105 40.9501 9.51868 40.8579C9.10233 40.6794 8.77395 40.3428 8.60576 39.9221C8.43757 39.5015 8.44334 39.0313 8.62181 38.6149L13.7468 26.6565C13.9295 26.2466 14.2663 25.925 14.6842 25.7613C15.1022 25.5976 15.5678 25.605 15.9803 25.7819C16.3929 25.9588 16.7192 26.2909 16.8888 26.7065C17.0585 27.1221 17.0577 27.5877 16.8867 28.0027L11.7617 39.9611C11.63 40.2683 11.4111 40.5301 11.132 40.7141C10.853 40.8982 10.526 40.9963 10.1918 40.9963ZM6.7751 33.7256C6.5813 33.7259 6.38889 33.693 6.20622 33.6283C4.68688 33.0712 3.33575 32.1339 2.28192 30.9058C1.22808 29.6777 0.506742 28.1999 0.186807 26.6136C-0.133127 25.0273 -0.0409681 23.3855 0.45448 21.8449C0.949929 20.3044 1.83212 18.9166 3.01677 17.8142C3.23659 17.6284 3.40588 17.39 3.50892 17.1212C3.61195 16.8524 3.6454 16.5619 3.60614 16.2767C3.29346 14.6481 3.27437 12.9767 3.54977 11.3413C4.00872 8.59347 5.30214 6.05338 7.25445 4.06594C9.20675 2.07849 11.7234 0.73995 14.4626 0.232047C17.4372 -0.321381 20.5114 0.12153 23.2088 1.49217C25.9062 2.86281 28.0764 5.08469 29.3832 7.81363C29.5038 8.06396 29.6814 8.28249 29.9019 8.45162C30.1224 8.62074 30.3794 8.73575 30.6525 8.78738C41.8011 10.8698 44.695 26.1731 35.0343 32.1454C34.8455 32.2725 34.6332 32.3605 34.4098 32.4043C34.1865 32.4481 33.9566 32.4469 33.7338 32.4006C33.5109 32.3543 33.2995 32.264 33.1121 32.135C32.9246 32.0059 32.7648 31.8406 32.6421 31.6489C32.5194 31.4572 32.4362 31.243 32.3975 31.0187C32.3588 30.7944 32.3652 30.5646 32.4165 30.3429C32.4678 30.1211 32.5629 29.9119 32.6962 29.7274C32.8295 29.5429 32.9983 29.3869 33.1928 29.2686C40.2721 24.9721 38.1196 13.5878 29.9845 12.1357C29.1884 11.984 28.4394 11.6461 27.7987 11.1497C27.158 10.6533 26.6437 10.0124 26.2979 9.27938C25.3701 7.30657 23.8373 5.68099 21.9224 4.63882C20.0075 3.59666 17.8102 3.19221 15.6497 3.48422C13.4892 3.77624 11.4781 4.74951 9.90859 6.26263C8.33906 7.77575 7.29287 9.7499 6.92201 11.8983C6.71327 13.1321 6.72716 14.3934 6.96302 15.6224C7.11433 16.4843 7.04243 17.3706 6.75415 18.1969C6.46588 19.0232 5.97083 19.7618 5.31618 20.3425C4.56286 21.0441 4.0019 21.927 3.68684 22.9071C3.37178 23.8871 3.31313 24.9315 3.5165 25.9406C3.71987 26.9497 4.17846 27.8899 4.84851 28.6714C5.51856 29.4529 6.37772 30.0496 7.34397 30.4046C7.72532 30.5379 8.0471 30.802 8.25218 31.1501C8.45725 31.4981 8.53235 31.9076 8.46415 32.3057C8.39594 32.7039 8.18884 33.065 7.87962 33.325C7.5704 33.5849 7.17907 33.7269 6.7751 33.7256Z" fill="#DFBD2C"/>
</svg>
