<svg width="14" height="14" viewBox="0 0 14 14" fill="none" xmlns="http://www.w3.org/2000/svg">
<path d="M4.6375 4.54999H1.48751C1.30185 4.54999 1.12381 4.47624 0.992531 4.34497C0.861256 4.21369 0.787506 4.03565 0.787506 3.85V0.699999C0.787506 0.514348 0.861256 0.3363 0.992531 0.205025C1.12381 0.0737497 1.30185 0 1.48751 0C1.67316 0 1.8512 0.0737497 1.98248 0.205025C2.11375 0.3363 2.1875 0.514348 2.1875 0.699999V3.15H4.6375C4.82315 3.15 5.0012 3.22375 5.13247 3.35502C5.26375 3.4863 5.3375 3.66434 5.3375 3.85C5.3375 4.03565 5.26375 4.21369 5.13247 4.34497C5.0012 4.47624 4.82315 4.54999 4.6375 4.54999Z" fill="#D3D3D3"/>
<path d="M13.3 7.69977C13.1143 7.69977 12.9363 7.62602 12.805 7.49474C12.6737 7.36347 12.6 7.18542 12.6 6.99977C12.6005 5.76745 12.1943 4.5694 11.4444 3.59155C10.6944 2.61369 9.6427 1.9107 8.45239 1.59166C7.26208 1.27263 5.99975 1.35538 4.86128 1.82709C3.72282 2.29879 2.77187 3.13308 2.15601 4.20047C2.063 4.36115 1.90997 4.47831 1.73058 4.52615C1.55119 4.57401 1.36014 4.54863 1.19946 4.45562C1.03878 4.36261 0.921629 4.20958 0.873779 4.03019C0.825929 3.8508 0.8513 3.65975 0.944312 3.49907C1.71449 2.16504 2.90339 1.12247 4.32658 0.533099C5.74976 -0.0562718 7.32767 -0.159492 8.81551 0.23945C10.3033 0.638392 11.6179 1.5172 12.5553 2.73952C13.4927 3.96185 14.0006 5.45937 14 6.99977C14 7.18542 13.9262 7.36347 13.795 7.49474C13.6637 7.62602 13.4856 7.69977 13.3 7.69977ZM12.5125 13.9998C12.3268 13.9998 12.1488 13.926 12.0175 13.7947C11.8862 13.6635 11.8125 13.4854 11.8125 13.2998V10.8498H9.3625C9.17685 10.8498 8.9988 10.776 8.86753 10.6447C8.73625 10.5135 8.6625 10.3354 8.6625 10.1498C8.6625 9.96411 8.73625 9.78607 8.86753 9.65479C8.9988 9.52351 9.17685 9.44977 9.3625 9.44977H12.5125C12.6981 9.44977 12.8762 9.52351 13.0075 9.65479C13.1387 9.78607 13.2125 9.96411 13.2125 10.1498V13.2998C13.2125 13.4854 13.1387 13.6635 13.0075 13.7947C12.8762 13.926 12.6981 13.9998 12.5125 13.9998Z" fill="#D3D3D3"/>
<path d="M6.99999 14C5.14416 13.9978 3.36498 13.2596 2.05271 11.9473C0.740434 10.635 0.002223 8.85585 0 7.00002C0 6.81437 0.0737497 6.63632 0.205025 6.50504C0.3363 6.37377 0.514348 6.30002 0.699999 6.30002C0.88565 6.30002 1.0637 6.37377 1.19497 6.50504C1.32625 6.63632 1.4 6.81437 1.4 7.00002C1.39947 8.23234 1.80569 9.43038 2.55563 10.4082C3.30557 11.3861 4.3573 12.0891 5.54761 12.4081C6.73791 12.7272 8.00024 12.6444 9.13871 12.1727C10.2772 11.701 11.2281 10.8667 11.844 9.79931C11.89 9.71975 11.9513 9.65004 12.0243 9.59416C12.0973 9.53828 12.1806 9.49732 12.2694 9.47363C12.3582 9.44994 12.4509 9.44397 12.542 9.45607C12.6331 9.46818 12.721 9.49811 12.8005 9.54416C12.8801 9.59022 12.9498 9.65149 13.0057 9.72449C13.0616 9.79748 13.1025 9.88077 13.1262 9.9696C13.1499 10.0584 13.1559 10.151 13.1438 10.2422C13.1317 10.3333 13.1017 10.4212 13.0557 10.5007C12.44 11.5622 11.557 12.4439 10.4945 13.0579C9.43197 13.6719 8.22713 13.9967 6.99999 14Z" fill="#D3D3D3"/>
</svg>
