<svg width="24" height="25" viewBox="0 0 24 25" fill="none" xmlns="http://www.w3.org/2000/svg">
    <path
        d="M21.656 5.4244L14.975 0.915399C14.0975 0.318932 13.061 0 12 0C10.939 0 9.90248 0.318932 9.025 0.915399L2.344 5.4234C1.62174 5.90978 1.03017 6.56632 0.621413 7.33518C0.212655 8.10405 -0.000748336 8.96163 1.97168e-06 9.8324V18.6874C0.00159003 20.0973 0.562388 21.4491 1.55936 22.446C2.55634 23.443 3.90807 24.0038 5.318 24.0054H18.682C20.0919 24.0038 21.4437 23.443 22.4406 22.446C23.4376 21.4491 23.9984 20.0973 24 18.6874V9.8324C24.0009 8.96175 23.7875 8.10427 23.3787 7.33556C22.9699 6.56684 22.3783 5.9105 21.656 5.4244ZM21 18.6874C20.9992 19.3019 20.7547 19.8911 20.3202 20.3256C19.8857 20.7601 19.2965 21.0046 18.682 21.0054H5.318C4.70347 21.0046 4.11434 20.7601 3.67981 20.3256C3.24527 19.8911 3.0008 19.3019 3 18.6874V9.8324C2.99978 9.45292 3.09277 9.07919 3.27079 8.74406C3.44882 8.40893 3.70644 8.12266 4.021 7.9104L10.7 3.4054C11.0826 3.14608 11.5343 3.00746 11.9965 3.00746C12.4587 3.00746 12.9104 3.14608 13.293 3.4054L19.975 7.9154C20.2898 8.12654 20.5479 8.41178 20.7266 8.74605C20.9053 9.08031 20.9992 9.45336 21 9.8324V18.6874ZM12 8.0054C11.0112 8.00541 10.0445 8.29863 9.22233 8.84797C8.40013 9.39732 7.75928 10.1781 7.3808 11.0917C7.00233 12.0052 6.90323 13.0105 7.09604 13.9803C7.28884 14.9502 7.76489 15.8411 8.464 16.5404L11.113 19.1314C11.3501 19.3631 11.6685 19.4929 12 19.4929C12.3315 19.4929 12.6499 19.3631 12.887 19.1314L15.535 16.5404C16.234 15.8411 16.7101 14.9503 16.9029 13.9806C17.0958 13.0108 16.9967 12.0056 16.6184 11.0921C16.24 10.1786 15.5993 9.39781 14.7773 8.84839C13.9552 8.29897 12.9888 8.00561 12 8.0054ZM12 14.5594C11.7033 14.5594 11.4133 14.4714 11.1666 14.3066C10.92 14.1418 10.7277 13.9075 10.6142 13.6334C10.5007 13.3593 10.4709 13.0577 10.5288 12.7668C10.5867 12.4758 10.7296 12.2085 10.9393 11.9987C11.1491 11.789 11.4164 11.6461 11.7074 11.5882C11.9983 11.5303 12.2999 11.56 12.574 11.6736C12.8481 11.7871 13.0824 11.9794 13.2472 12.226C13.412 12.4727 13.5 12.7627 13.5 13.0594C13.5 13.4572 13.342 13.8388 13.0607 14.1201C12.7794 14.4014 12.3978 14.5594 12 14.5594Z"
        fill="#D3D3D3" />
</svg>