<svg width="23" height="24" viewBox="0 0 23 24" fill="none" xmlns="http://www.w3.org/2000/svg">
<path d="M9.02644 12.5714C6.29594 12.5714 3.72341 11.8857 2.25661 10.8V7.58857C3.91522 8.53714 6.32979 9.14286 9.02644 9.14286C11.7231 9.14286 14.1377 8.53714 15.7963 7.58857V10.3771C16.1686 10.32 16.5409 10.2857 16.9246 10.2857C17.3082 10.2857 17.6805 10.32 18.0529 10.3771V4.57143C18.0529 2.04571 14.0135 0 9.02644 0C4.03933 0 0 2.04571 0 4.57143V16C0 18.5257 4.05061 20.5714 9.02644 20.5714H9.35365C9.14161 19.8283 9.03151 19.0592 9.02644 18.2857C4.6599 18.2857 2.25661 16.5714 2.25661 16V13.4514C4.07318 14.3429 6.4539 14.8571 9.02644 14.8571C9.29723 14.8571 9.55674 14.8571 9.81625 14.8229C10.2676 13.8743 10.8881 13.04 11.6441 12.3543C10.8092 12.4914 9.92908 12.5714 9.02644 12.5714ZM9.02644 2.28571C13.393 2.28571 15.7963 4 15.7963 4.57143C15.7963 5.14286 13.393 6.85714 9.02644 6.85714C4.6599 6.85714 2.25661 5.14286 2.25661 4.57143C2.25661 4 4.6599 2.28571 9.02644 2.28571ZM21.0993 18.9714V17.8286L22.3404 16.9143C22.4533 16.8 22.5661 16.6857 22.4533 16.5714L21.325 14.6286C21.325 14.5143 21.0993 14.5143 20.9865 14.5143L19.6325 15.0857C19.294 14.8571 18.9555 14.6286 18.617 14.5143L18.3914 13.0286C18.3914 12.9143 18.2785 12.8 18.1657 12.8H15.9091C15.6834 12.8 15.5706 12.9143 15.5706 13.0286L15.3449 14.5143C15.0065 14.7429 14.7808 14.8571 14.4423 15.0857L13.0883 14.5143C12.9755 14.5143 12.8627 14.5143 12.7498 14.6286L11.6215 16.5714C11.6215 16.6857 11.6215 16.8 11.7344 16.9143L12.9755 17.8286V18.9714L11.7344 19.8857C11.6215 20 11.5087 20.1143 11.6215 20.2286L12.7498 22.1714C12.8627 22.2857 12.9755 22.2857 13.0883 22.2857L14.4423 21.7143C14.668 21.9429 15.0065 22.1714 15.3449 22.2857L15.5706 23.7714C15.6834 23.8857 15.7963 24 15.9091 24H18.1657C18.2785 24 18.3914 23.8857 18.3914 23.7714L18.617 22.2857C18.9555 22.0571 19.1812 21.9429 19.5197 21.7143L20.8736 22.1714C20.9865 22.1714 21.0993 22.1714 21.2121 22.0571L22.3404 20.1143C22.4533 20 22.4533 19.8857 22.3404 19.8857L21.0993 18.9714ZM16.9246 20C16.0219 20 15.2321 19.2 15.2321 18.2857C15.2321 17.3714 16.0219 16.5714 16.9246 16.5714C17.8272 16.5714 18.617 17.3714 18.617 18.2857C18.617 19.2 17.8272 20 16.9246 20Z" fill="#DFBD2C"/>
</svg>
