<svg width="23" height="26" viewBox="0 0 23 26" fill="none" xmlns="http://www.w3.org/2000/svg">
<path d="M12.6797 10.1555H12.4496C12.4876 10.222 12.5253 10.2887 12.5627 10.3555L12.6797 10.1555ZM12.6797 10.1555C12.7173 10.222 12.7546 10.2887 12.7915 10.3555L12.6797 10.1555ZM11.2795 5.06777C10.6562 4.27097 10.0048 3.49649 9.32671 2.74579L9.32867 2.74394L9.19958 2.60686L9.17456 2.57767L9.16839 2.57459C9.08435 2.49138 8.98543 2.42452 8.87667 2.37755C8.75774 2.32618 8.62955 2.29968 8.5 2.29968C8.37045 2.29968 8.24226 2.32618 8.12333 2.37755C8.00537 2.4285 7.89898 2.50284 7.81059 2.59607L7.80959 2.59707L7.80415 2.6025L7.79915 2.60834L7.7937 2.6147L7.76447 2.64526L7.76442 2.64521L7.76101 2.64897L7.64101 2.78096L7.64041 2.78163C6.97409 3.52117 6.33372 4.28368 5.72046 5.06779C4.56285 6.54754 3.13552 8.57351 2.1201 10.6952L2.12009 10.6952C1.36593 12.2715 0.8 13.98 0.8 15.5995C0.8 20.0201 4.19653 23.7 8.5 23.7C12.8035 23.7 16.2 20.0201 16.2 15.5995C16.2 13.9815 15.6341 12.2715 14.8799 10.6952L14.8799 10.6952C13.8645 8.57351 12.4371 6.54752 11.2795 5.06777L11.122 5.191L11.2795 5.06777ZM4.55164 10.1555C5.38183 8.70128 6.3641 7.33089 7.21755 6.2382C7.71135 5.60672 8.15699 5.07389 8.50023 4.67625L4.55164 10.1555ZM18.25 0.8C17.998 0.8 17.7564 0.900089 17.5782 1.07825C17.4001 1.25641 17.3 1.49804 17.3 1.75C17.3 2.00196 17.4001 2.24359 17.5782 2.42175C17.7564 2.59991 17.998 2.7 18.25 2.7H20.3V6.425H19.75C19.498 6.425 19.2564 6.52509 19.0782 6.70325C18.9001 6.88141 18.8 7.12304 18.8 7.375C18.8 7.62696 18.9001 7.86859 19.0782 8.04675C19.2564 8.22491 19.498 8.325 19.75 8.325H20.3V12.05H18.25C17.998 12.05 17.7564 12.1501 17.5782 12.3282C17.4001 12.5064 17.3 12.748 17.3 13C17.3 13.252 17.4001 13.4936 17.5782 13.6718C17.7564 13.8499 17.998 13.95 18.25 13.95H20.3V17.675H19.75C19.498 17.675 19.2564 17.7751 19.0782 17.9532C18.9001 18.1314 18.8 18.373 18.8 18.625C18.8 18.877 18.9001 19.1186 19.0782 19.2968C19.2564 19.4749 19.498 19.575 19.75 19.575H20.3V23.3H18.25C17.998 23.3 17.7564 23.4001 17.5782 23.5782C17.4001 23.7564 17.3 23.998 17.3 24.25C17.3 24.502 17.4001 24.7436 17.5782 24.9218C17.7564 25.0999 17.998 25.2 18.25 25.2H21.25C21.502 25.2 21.7436 25.0999 21.9218 24.9218C22.0999 24.7436 22.2 24.502 22.2 24.25V1.75C22.2 1.49804 22.0999 1.25641 21.9218 1.07825C21.7436 0.900089 21.502 0.8 21.25 0.8H18.25ZM2.7 15.5995C2.7 14.5395 3.0332 13.326 3.58739 12.0555H13.4127C13.9681 13.3258 14.3 14.5394 14.3 15.5995C14.3 19.0756 11.6522 21.8 8.5 21.8C5.34777 21.8 2.7 19.0756 2.7 15.5995Z" fill="#DFBD2C" stroke="#DFBD2C" stroke-width="0.4"/>
</svg>
