<svg width="22" height="18" viewBox="0 0 22 18" fill="none" xmlns="http://www.w3.org/2000/svg">
<path d="M15.2222 17V15.2222C15.2222 13.2585 13.6303 11.6667 11.6667 11.6667H4.55556C2.59188 11.6667 1 13.2585 1 15.2222V17" stroke="#D3D3D3" stroke-width="1.5" stroke-linecap="round" stroke-linejoin="round"/>
<path fill-rule="evenodd" clip-rule="evenodd" d="M8.11122 8.11111C10.0749 8.11111 11.6668 6.51923 11.6668 4.55556C11.6668 2.59188 10.0749 1 8.11122 1C6.14754 1 4.55566 2.59188 4.55566 4.55556C4.55566 6.51923 6.14754 8.11111 8.11122 8.11111Z" stroke="#D3D3D3" stroke-width="1.5" stroke-linecap="round" stroke-linejoin="round"/>
<path opacity="0.6" d="M20.5555 17V15.2222C20.5543 13.6019 19.4577 12.1873 17.8888 11.7822" stroke="#D3D3D3" stroke-width="1.5" stroke-linecap="round" stroke-linejoin="round"/>
<path opacity="0.6" d="M14.3334 1.11557C15.9066 1.51839 17.007 2.93601 17.007 4.56001C17.007 6.18402 15.9066 7.60164 14.3334 8.00446" stroke="#D3D3D3" stroke-width="1.5" stroke-linecap="round" stroke-linejoin="round"/>
</svg>
