<svg width="12" height="12" viewBox="0 0 12 12" fill="none" xmlns="http://www.w3.org/2000/svg">
<circle cx="5.84133" cy="5.84133" r="5.84133" fill="#DFBD2C"/>
<g clip-path="url(#clip0_1_385)">
<path d="M5.03841 7.29456C5.48649 7.74266 6.21299 7.74266 6.66109 7.29457L6.6611 7.29456L7.4801 6.47556C7.63203 6.32881 7.63624 6.08669 7.48949 5.93475C7.34274 5.78282 7.10062 5.77861 6.94868 5.92536C6.94549 5.92843 6.94236 5.93157 6.93929 5.93475L6.22968 6.6441L6.22381 3.1639C6.22381 2.95267 6.05257 2.78143 5.84134 2.78143C5.63011 2.78143 5.45887 2.95267 5.45887 3.1639L5.46423 6.63849L4.76023 5.9345C4.6083 5.78775 4.36617 5.79196 4.21942 5.9439C4.07627 6.09211 4.07627 6.32709 4.21942 6.47531L5.03841 7.29456Z" fill="white"/>
<path d="M8.51864 6.47864C8.30741 6.47864 8.13617 6.64988 8.13617 6.86111V8.03171C8.13603 8.08925 8.08943 8.13586 8.03189 8.13599H3.65084C3.5933 8.13585 3.54668 8.08925 3.54655 8.03171V6.86111C3.54655 6.64988 3.37531 6.47864 3.16408 6.47864C2.95285 6.47864 2.78162 6.64988 2.78162 6.86111V8.03171C2.78218 8.51154 3.17102 8.90038 3.65084 8.90094H8.03188C8.51171 8.90038 8.90053 8.51154 8.9011 8.03172V6.86112C8.90111 6.64988 8.72987 6.47864 8.51864 6.47864Z" fill="white"/>
</g>
<defs>
<clipPath id="clip0_1_385">
<rect width="6.11949" height="6.11949" fill="white" transform="translate(2.78162 2.78143)"/>
</clipPath>
</defs>
</svg>
