<svg width="75" height="63" viewBox="0 0 75 63" fill="none" xmlns="http://www.w3.org/2000/svg">
<path d="M63 15H60V6H63M60 18H63V21H60M67.095 0H55.905L48 7.905V19.095L55.905 27H67.095L75 19.095V7.905L67.095 0Z" fill="#99D3B2"/>
<path d="M55.3273 30.4937C57.8511 30.5164 60.2679 31.5148 62.0706 33.2794C63.8733 35.0439 64.9217 37.4373 64.9958 39.9574C65.0699 42.4775 64.1638 44.9283 62.4679 46.7954C60.7719 48.6626 58.4178 49.8009 55.8997 49.9715L55.2265 49.9877L54.8947 50.0072H51.1056C51.7236 51.2224 52.0748 52.5934 52.0748 54.0457C52.0748 59.0167 48.3247 63 43.3744 63C38.4794 63 35.5197 60.1376 34.7228 56.1673C34.6202 55.544 34.7639 54.9051 35.1238 54.3856C35.4836 53.8661 36.0313 53.5064 36.6514 53.3825C37.2716 53.2586 37.9157 53.3802 38.4478 53.7215C38.98 54.0628 39.3587 54.5973 39.504 55.2121C39.8747 57.0478 40.9903 58.1265 43.3744 58.1265C45.5601 58.1265 47.1961 56.3915 47.1961 54.0457C47.1961 51.8104 45.3487 49.9845 43.0557 49.9845L2.43862 50.0072C1.82057 50.007 1.22564 49.7725 0.774025 49.351C0.322415 48.9295 0.047803 48.3525 0.00567684 47.7366C-0.0364493 47.1206 0.157051 46.5116 0.54708 46.0327C0.93711 45.5538 1.49459 45.2406 2.10687 45.1565L2.43862 45.1337H42.7272L43.0557 45.1142C43.2671 45.1142 43.472 45.1207 43.6769 45.1337L54.9695 45.1402L55.1452 45.1207L55.7957 45.0882C56.7041 44.9991 57.5692 44.6572 58.2928 44.1014C59.0164 43.5456 59.5694 42.7981 59.8889 41.944C60.2084 41.0899 60.2816 40.1634 60.1003 39.2698C59.9189 38.3761 59.4902 37.5513 58.863 36.8889C58.2357 36.2265 57.435 35.7532 56.5518 35.5228C55.6687 35.2923 54.7385 35.314 53.8671 35.5853C52.9957 35.8566 52.2179 36.3667 51.6222 37.0575C51.0265 37.7484 50.6368 38.5923 50.4974 39.4934L50.4095 40.2699C50.3007 40.8877 49.9576 41.4398 49.4516 41.8113C48.9456 42.1827 48.3156 42.3449 47.6929 42.2642C47.0702 42.1834 46.5026 41.8658 46.1084 41.3775C45.7141 40.8893 45.5236 40.268 45.5764 39.6429C45.7296 37.1642 46.8239 34.8374 48.636 33.1371C50.448 31.4369 52.8412 30.4914 55.3273 30.4937ZM2.50042 36.9917C1.88237 36.9915 1.28743 36.757 0.835823 36.3355C0.384212 35.914 0.1096 35.337 0.0674743 34.721C0.0253481 34.1051 0.218849 33.4961 0.608878 33.0172C0.998907 32.5383 1.55638 32.2251 2.16866 32.1409L2.50042 32.1182H32.5664C34.1746 32.1182 35.7467 31.6418 37.0839 30.7493C38.421 29.8568 39.4632 28.5882 40.0787 27.104C40.6941 25.6198 40.8551 23.9867 40.5414 22.4111C40.2276 20.8354 39.4532 19.3881 38.316 18.2522C37.1789 17.1162 35.73 16.3426 34.1527 16.0292C32.5754 15.7158 30.9405 15.8767 29.4547 16.4914C27.9689 17.1062 26.699 18.1473 25.8055 19.483C24.9121 20.8188 24.4352 22.3892 24.4352 23.9957C24.4352 24.6419 24.1782 25.2617 23.7207 25.7187C23.2632 26.1757 22.6428 26.4324 21.9958 26.4324C21.3489 26.4324 20.7284 26.1757 20.2709 25.7187C19.8135 25.2617 19.5565 24.6419 19.5565 23.9957C19.5565 21.4559 20.3016 18.9718 21.6995 16.8504C23.0975 14.729 25.087 13.0633 27.4223 12.059C29.7576 11.0548 32.3363 10.7562 34.8397 11.1999C37.3431 11.6437 39.6614 12.8105 41.5082 14.5561C43.355 16.3017 44.6493 18.5496 45.2311 21.022C45.8129 23.4944 45.6568 26.0829 44.782 28.4676C43.9072 30.8523 42.3521 32.9287 40.3089 34.4401C38.2656 35.9516 35.8238 36.8319 33.2852 36.9722L32.5697 36.9917H2.50042Z" fill="#99D3B2"/>
</svg>
