<svg width="27" height="25" viewBox="0 0 27 25" fill="none" xmlns="http://www.w3.org/2000/svg">
<path d="M2 11.3333H20.4C21.3098 11.3333 22.1992 11.0596 22.9556 10.5469C23.7121 10.0341 24.3017 9.30525 24.6498 8.45252C24.998 7.5998 25.0891 6.66149 24.9116 5.75625C24.7341 4.851 24.296 4.01948 23.6527 3.36684C23.0094 2.71419 22.1897 2.26974 21.2974 2.08967C20.4051 1.90961 19.4802 2.00202 18.6397 2.35523C17.7991 2.70844 17.0807 3.30658 16.5752 4.07401C16.0698 4.84144 15.8 5.74369 15.8 6.66667M5.45 15.4167H2M15.225 15.4167H11.775M25 15.4167H21.55M5.45 18.9167H2M15.225 18.9167H11.775M25 18.9167H21.55M8.9 23H2M25 23H18.1" stroke="#DFBD2C" stroke-width="2.3" stroke-linecap="round" stroke-linejoin="round"/>
</svg>
