<svg width="33" height="29" viewBox="0 0 33 29" fill="none" xmlns="http://www.w3.org/2000/svg">
<path d="M20.625 23.2946C20.625 26.04 18.3975 28.2862 15.675 28.2862C12.9525 28.2862 10.725 26.04 10.725 23.2946H14.025C14.025 24.2097 14.7675 24.9585 15.675 24.9585C16.5825 24.9585 17.325 24.2097 17.325 23.2946C17.325 22.3795 16.5825 21.6307 15.675 21.6307H0V18.303H15.675C18.3975 18.303 20.625 20.5492 20.625 23.2946ZM28.05 5.82402C28.05 2.61276 25.4595 0.000488281 22.275 0.000488281C19.0905 0.000488281 16.5 2.61276 16.5 5.82402H19.8C19.8 4.44301 20.9055 3.32822 22.275 3.32822C23.6445 3.32822 24.75 4.44301 24.75 5.82402C24.75 7.20503 23.6445 8.31982 22.275 8.31982H0V11.6475H22.275C25.4595 11.6475 28.05 9.03528 28.05 5.82402ZM27.225 13.3114H0V16.6391H27.225C28.5945 16.6391 29.7 17.7539 29.7 19.1349C29.7 20.516 28.5945 21.6307 27.225 21.6307V24.9585C30.4095 24.9585 33 22.3462 33 19.1349C33 15.9237 30.4095 13.3114 27.225 13.3114Z" fill="#65DAFF"/>
</svg>
