<svg width="23" height="24" viewBox="0 0 23 24" fill="none" xmlns="http://www.w3.org/2000/svg">
<path d="M1.2 9.6C0.88174 9.6 0.576515 9.47357 0.351472 9.24853C0.126428 9.02348 0 8.71826 0 8.4C0 8.08174 0.126428 7.77652 0.351472 7.55147C0.576515 7.32643 0.88174 7.2 1.2 7.2H10.8C11.4365 7.2 12.047 6.94714 12.4971 6.49706C12.9471 6.04697 13.2 5.43652 13.2 4.8C13.2 4.16348 12.9471 3.55303 12.4971 3.10294C12.047 2.65286 11.4365 2.4 10.8 2.4C10.14 2.4 9.54 2.664 9.108 3.108C8.99879 3.22455 8.86683 3.31745 8.72029 3.38096C8.57374 3.44447 8.41572 3.47724 8.256 3.47724C8.09628 3.47724 7.93826 3.44447 7.79172 3.38096C7.64517 3.31745 7.51321 3.22455 7.404 3.108C6.936 2.64 6.936 1.872 7.404 1.404C8.28 0.54 9.48 0 10.8 0C12.073 0 13.2939 0.505713 14.1941 1.40589C15.0943 2.30606 15.6 3.52696 15.6 4.8C15.6 6.07304 15.0943 7.29394 14.1941 8.19411C13.2939 9.09429 12.073 9.6 10.8 9.6H1.2ZM19.2 12C19.5183 12 19.8235 11.8736 20.0485 11.6485C20.2736 11.4235 20.4 11.1183 20.4 10.8C20.4 10.4817 20.2736 10.1765 20.0485 9.95147C19.8235 9.72643 19.5183 9.6 19.2 9.6C18.864 9.6 18.564 9.732 18.348 9.948C18.237 10.0592 18.1051 10.1475 17.96 10.2077C17.8148 10.2679 17.6592 10.2989 17.502 10.2989C17.3448 10.2989 17.1892 10.2679 17.0441 10.2077C16.8989 10.1475 16.767 10.0592 16.656 9.948C16.2 9.48 16.2 8.724 16.656 8.256C17.304 7.608 18.204 7.2 19.2 7.2C20.1548 7.2 21.0705 7.57928 21.7456 8.25442C22.4207 8.92955 22.8 9.84522 22.8 10.8C22.8 11.7548 22.4207 12.6705 21.7456 13.3456C21.0705 14.0207 20.1548 14.4 19.2 14.4H2.4C2.08174 14.4 1.77652 14.2736 1.55147 14.0485C1.32643 13.8235 1.2 13.5183 1.2 13.2C1.2 12.8817 1.32643 12.5765 1.55147 12.3515C1.77652 12.1264 2.08174 12 2.4 12H19.2ZM18 19.2H1.2C0.88174 19.2 0.576515 19.0736 0.351472 18.8485C0.126428 18.6235 0 18.3183 0 18C0 17.6817 0.126428 17.3765 0.351472 17.1515C0.576515 16.9264 0.88174 16.8 1.2 16.8H18C18.9548 16.8 19.8705 17.1793 20.5456 17.8544C21.2207 18.5295 21.6 19.4452 21.6 20.4C21.6 21.3548 21.2207 22.2705 20.5456 22.9456C19.8705 23.6207 18.9548 24 18 24C17.004 24 16.104 23.592 15.456 22.944C15 22.476 15 21.72 15.456 21.252C15.567 21.1408 15.6989 21.0525 15.8441 20.9923C15.9892 20.9321 16.1448 20.9011 16.302 20.9011C16.4592 20.9011 16.6148 20.9321 16.76 20.9923C16.9051 21.0525 17.037 21.1408 17.148 21.252C17.364 21.468 17.664 21.6 18 21.6C18.3183 21.6 18.6235 21.4736 18.8485 21.2485C19.0736 21.0235 19.2 20.7183 19.2 20.4C19.2 20.0817 19.0736 19.7765 18.8485 19.5515C18.6235 19.3264 18.3183 19.2 18 19.2Z" fill="#DFBD2C"/>
</svg>
